<mxfile host="app.diagrams.net" agent="Mozilla/5.0 (Macintosh; Intel Mac OS X 10_15_7) AppleWebKit/537.36 (KHTML, like Gecko) Chrome/131.0.0.0 Safari/537.36" version="26.0.3">
  <diagram name="Page-1" id="8fe9thM-FXNuNx1j2HVO">
    <mxGraphModel dx="1874" dy="1527" grid="0" gridSize="10" guides="1" tooltips="1" connect="1" arrows="1" fold="1" page="0" pageScale="1" pageWidth="850" pageHeight="1100" math="0" shadow="0">
      <root>
        <mxCell id="0" />
        <mxCell id="1" parent="0" />
        <mxCell id="mVAhTfFo_Tym0qC6vXfd-67" value="" style="rounded=1;whiteSpace=wrap;html=1;" parent="1" vertex="1">
          <mxGeometry x="-355" y="-1" width="1298" height="420" as="geometry" />
        </mxCell>
        <mxCell id="mVAhTfFo_Tym0qC6vXfd-64" style="edgeStyle=orthogonalEdgeStyle;rounded=0;orthogonalLoop=1;jettySize=auto;html=1;entryX=1;entryY=0.75;entryDx=0;entryDy=0;" parent="1" source="mVAhTfFo_Tym0qC6vXfd-4" target="mVAhTfFo_Tym0qC6vXfd-5" edge="1">
          <mxGeometry relative="1" as="geometry">
            <Array as="points">
              <mxPoint x="578" y="252" />
              <mxPoint x="578" y="252" />
            </Array>
          </mxGeometry>
        </mxCell>
        <mxCell id="mVAhTfFo_Tym0qC6vXfd-66" value="8. Display&lt;div&gt;generated content&lt;/div&gt;" style="edgeLabel;html=1;align=center;verticalAlign=middle;resizable=0;points=[];" parent="mVAhTfFo_Tym0qC6vXfd-64" vertex="1" connectable="0">
          <mxGeometry x="0.4877" relative="1" as="geometry">
            <mxPoint x="15" y="17" as="offset" />
          </mxGeometry>
        </mxCell>
        <mxCell id="mVAhTfFo_Tym0qC6vXfd-4" value="" style="shape=image;verticalLabelPosition=bottom;labelBackgroundColor=default;verticalAlign=top;aspect=fixed;imageAspect=0;image=https://files.svgcdn.io/logos/google-gemini.svg;clipPath=inset(28.5% 0% 21.5% 0%);" parent="1" vertex="1">
          <mxGeometry x="690" y="167.25" width="233" height="116.5" as="geometry" />
        </mxCell>
        <mxCell id="mVAhTfFo_Tym0qC6vXfd-32" style="edgeStyle=orthogonalEdgeStyle;rounded=0;orthogonalLoop=1;jettySize=auto;html=1;entryX=0;entryY=0.25;entryDx=0;entryDy=0;" parent="1" source="mVAhTfFo_Tym0qC6vXfd-5" target="mVAhTfFo_Tym0qC6vXfd-4" edge="1">
          <mxGeometry relative="1" as="geometry">
            <Array as="points">
              <mxPoint x="528" y="196" />
              <mxPoint x="528" y="196" />
            </Array>
          </mxGeometry>
        </mxCell>
        <mxCell id="mVAhTfFo_Tym0qC6vXfd-65" value="7. Request Gemini&lt;div&gt;to generate the content&lt;/div&gt;" style="edgeLabel;html=1;align=center;verticalAlign=middle;resizable=0;points=[];" parent="mVAhTfFo_Tym0qC6vXfd-32" vertex="1" connectable="0">
          <mxGeometry x="-0.2292" y="-2" relative="1" as="geometry">
            <mxPoint x="11" y="-17" as="offset" />
          </mxGeometry>
        </mxCell>
        <mxCell id="mVAhTfFo_Tym0qC6vXfd-42" style="edgeStyle=orthogonalEdgeStyle;rounded=0;orthogonalLoop=1;jettySize=auto;html=1;" parent="1" source="mVAhTfFo_Tym0qC6vXfd-5" target="mVAhTfFo_Tym0qC6vXfd-17" edge="1">
          <mxGeometry relative="1" as="geometry">
            <Array as="points">
              <mxPoint x="200" y="98" />
            </Array>
          </mxGeometry>
        </mxCell>
        <mxCell id="mVAhTfFo_Tym0qC6vXfd-43" value="4. Format and&lt;div&gt;filter code&lt;/div&gt;" style="edgeLabel;html=1;align=center;verticalAlign=middle;resizable=0;points=[];" parent="mVAhTfFo_Tym0qC6vXfd-42" vertex="1" connectable="0">
          <mxGeometry x="-0.0536" y="1" relative="1" as="geometry">
            <mxPoint x="-1" y="27" as="offset" />
          </mxGeometry>
        </mxCell>
        <mxCell id="mVAhTfFo_Tym0qC6vXfd-56" style="edgeStyle=orthogonalEdgeStyle;rounded=0;orthogonalLoop=1;jettySize=auto;html=1;entryX=0.25;entryY=1;entryDx=0;entryDy=0;" parent="1" source="mVAhTfFo_Tym0qC6vXfd-5" target="mVAhTfFo_Tym0qC6vXfd-5" edge="1">
          <mxGeometry relative="1" as="geometry">
            <mxPoint x="331.54999999999995" y="430" as="targetPoint" />
            <Array as="points">
              <mxPoint x="192" y="339" />
              <mxPoint x="248" y="339" />
            </Array>
          </mxGeometry>
        </mxCell>
        <mxCell id="mVAhTfFo_Tym0qC6vXfd-57" value="6. Optionally provide&lt;div&gt;additional prompt context&lt;/div&gt;" style="edgeLabel;html=1;align=center;verticalAlign=middle;resizable=0;points=[];" parent="mVAhTfFo_Tym0qC6vXfd-56" vertex="1" connectable="0">
          <mxGeometry x="-0.1145" relative="1" as="geometry">
            <mxPoint x="8" y="21" as="offset" />
          </mxGeometry>
        </mxCell>
        <mxCell id="mVAhTfFo_Tym0qC6vXfd-58" style="edgeStyle=orthogonalEdgeStyle;rounded=0;orthogonalLoop=1;jettySize=auto;html=1;entryX=0.75;entryY=1;entryDx=0;entryDy=0;" parent="1" source="mVAhTfFo_Tym0qC6vXfd-5" target="mVAhTfFo_Tym0qC6vXfd-5" edge="1">
          <mxGeometry relative="1" as="geometry">
            <mxPoint x="456" y="426" as="targetPoint" />
            <Array as="points">
              <mxPoint x="365" y="341" />
              <mxPoint x="415" y="341" />
            </Array>
          </mxGeometry>
        </mxCell>
        <mxCell id="mVAhTfFo_Tym0qC6vXfd-59" value="9. Optionally iterate&lt;div&gt;over the results&lt;/div&gt;" style="edgeLabel;html=1;align=center;verticalAlign=middle;resizable=0;points=[];" parent="mVAhTfFo_Tym0qC6vXfd-58" vertex="1" connectable="0">
          <mxGeometry x="0.0993" y="1" relative="1" as="geometry">
            <mxPoint x="-6" y="22" as="offset" />
          </mxGeometry>
        </mxCell>
        <mxCell id="mVAhTfFo_Tym0qC6vXfd-5" value="Application" style="shape=image;verticalLabelPosition=bottom;labelBackgroundColor=default;verticalAlign=top;aspect=fixed;imageAspect=0;image=https://seeklogo.com/images/G/gradio-logo-C1E1266F61-seeklogo.com.png;clipPath=inset(35.33% 2% 34.33% 3%);" parent="1" vertex="1">
          <mxGeometry x="164" y="172" width="335.1" height="107" as="geometry" />
        </mxCell>
        <mxCell id="mVAhTfFo_Tym0qC6vXfd-6" value="&lt;b&gt;&lt;font style=&quot;font-size: 14px;&quot;&gt;Local&lt;/font&gt;&lt;/b&gt;" style="text;html=1;align=center;verticalAlign=middle;whiteSpace=wrap;rounded=0;" parent="1" vertex="1">
          <mxGeometry x="61" y="20" width="60" height="30" as="geometry" />
        </mxCell>
        <mxCell id="mVAhTfFo_Tym0qC6vXfd-7" value="&lt;b&gt;&lt;font style=&quot;font-size: 14px;&quot;&gt;Cloud&lt;/font&gt;&lt;/b&gt;" style="text;html=1;align=center;verticalAlign=middle;whiteSpace=wrap;rounded=0;" parent="1" vertex="1">
          <mxGeometry x="730" y="20" width="60" height="30" as="geometry" />
        </mxCell>
        <mxCell id="mVAhTfFo_Tym0qC6vXfd-10" value="" style="endArrow=none;dashed=1;html=1;rounded=0;strokeWidth=2;" parent="1" edge="1">
          <mxGeometry width="50" height="50" relative="1" as="geometry">
            <mxPoint x="590" y="402" as="sourcePoint" />
            <mxPoint x="590" y="26" as="targetPoint" />
          </mxGeometry>
        </mxCell>
        <mxCell id="mVAhTfFo_Tym0qC6vXfd-11" value="&lt;font style=&quot;&quot;&gt;&lt;span style=&quot;font-size: 14px;&quot;&gt;&lt;b&gt;Content Creator&amp;nbsp;AI Tools&lt;/b&gt;&lt;/span&gt;&lt;/font&gt;" style="rounded=1;whiteSpace=wrap;html=1;" parent="1" vertex="1">
          <mxGeometry x="198" y="-41" width="192" height="33" as="geometry" />
        </mxCell>
        <mxCell id="mVAhTfFo_Tym0qC6vXfd-27" style="edgeStyle=orthogonalEdgeStyle;rounded=0;orthogonalLoop=1;jettySize=auto;html=1;entryX=0;entryY=0.25;entryDx=0;entryDy=0;" parent="1" source="mVAhTfFo_Tym0qC6vXfd-15" target="mVAhTfFo_Tym0qC6vXfd-5" edge="1">
          <mxGeometry relative="1" as="geometry" />
        </mxCell>
        <mxCell id="mVAhTfFo_Tym0qC6vXfd-28" value="3.1.&amp;nbsp;&lt;span style=&quot;background-color: light-dark(#ffffff, var(--ge-dark-color, #121212)); color: light-dark(rgb(0, 0, 0), rgb(255, 255, 255));&quot;&gt;GitHub URL&lt;/span&gt;&lt;div&gt;&lt;span style=&quot;background-color: light-dark(#ffffff, var(--ge-dark-color, #121212)); color: light-dark(rgb(0, 0, 0), rgb(255, 255, 255));&quot;&gt;or&amp;nbsp;&lt;/span&gt;&lt;span style=&quot;background-color: light-dark(#ffffff, var(--ge-dark-color, #121212)); color: light-dark(rgb(0, 0, 0), rgb(255, 255, 255));&quot;&gt;path to a&lt;/span&gt;&lt;div&gt;&lt;div&gt;local repository&lt;/div&gt;&lt;/div&gt;&lt;/div&gt;" style="edgeLabel;html=1;align=center;verticalAlign=middle;resizable=0;points=[];" parent="mVAhTfFo_Tym0qC6vXfd-27" vertex="1" connectable="0">
          <mxGeometry x="-0.4893" y="-2" relative="1" as="geometry">
            <mxPoint x="31" y="26" as="offset" />
          </mxGeometry>
        </mxCell>
        <mxCell id="mVAhTfFo_Tym0qC6vXfd-15" value="GitHub URL or&#xa;Local repository" style="shape=image;verticalLabelPosition=bottom;labelBackgroundColor=default;verticalAlign=top;aspect=fixed;imageAspect=0;image=https://logos-world.net/wp-content/uploads/2020/11/GitHub-Logo-700x394.png;clipPath=inset(0% 17.67% 0% 17%);" parent="1" vertex="1">
          <mxGeometry x="-100.56" y="80.5" width="66.11" height="57" as="geometry" />
        </mxCell>
        <mxCell id="mVAhTfFo_Tym0qC6vXfd-20" style="edgeStyle=orthogonalEdgeStyle;rounded=0;orthogonalLoop=1;jettySize=auto;html=1;" parent="1" source="mVAhTfFo_Tym0qC6vXfd-17" edge="1">
          <mxGeometry relative="1" as="geometry">
            <mxPoint x="334" y="199" as="targetPoint" />
            <Array as="points">
              <mxPoint x="334" y="98" />
              <mxPoint x="334" y="192" />
            </Array>
          </mxGeometry>
        </mxCell>
        <mxCell id="mVAhTfFo_Tym0qC6vXfd-31" value="5. Parse code&lt;div&gt;to a LLM-friedly format&lt;/div&gt;" style="edgeLabel;html=1;align=center;verticalAlign=middle;resizable=0;points=[];" parent="mVAhTfFo_Tym0qC6vXfd-20" vertex="1" connectable="0">
          <mxGeometry x="-0.0206" y="-3" relative="1" as="geometry">
            <mxPoint x="27" y="15" as="offset" />
          </mxGeometry>
        </mxCell>
        <mxCell id="mVAhTfFo_Tym0qC6vXfd-17" value="" style="sketch=0;outlineConnect=0;fontColor=#232F3E;gradientColor=none;fillColor=#232F3D;strokeColor=none;dashed=0;verticalLabelPosition=bottom;verticalAlign=top;align=center;html=1;fontSize=12;fontStyle=0;aspect=fixed;pointerEvents=1;shape=mxgraph.aws4.source_code;" parent="1" vertex="1">
          <mxGeometry x="239" y="59" width="57" height="78" as="geometry" />
        </mxCell>
        <mxCell id="mVAhTfFo_Tym0qC6vXfd-51" style="edgeStyle=orthogonalEdgeStyle;rounded=0;orthogonalLoop=1;jettySize=auto;html=1;" parent="1" source="mVAhTfFo_Tym0qC6vXfd-44" edge="1">
          <mxGeometry relative="1" as="geometry">
            <mxPoint x="-119" y="220" as="targetPoint" />
          </mxGeometry>
        </mxCell>
        <mxCell id="mVAhTfFo_Tym0qC6vXfd-52" value="3. Provide one&lt;div&gt;input type&lt;/div&gt;" style="edgeLabel;html=1;align=center;verticalAlign=middle;resizable=0;points=[];" parent="mVAhTfFo_Tym0qC6vXfd-51" vertex="1" connectable="0">
          <mxGeometry x="0.187" y="-3" relative="1" as="geometry">
            <mxPoint x="-11" y="-3" as="offset" />
          </mxGeometry>
        </mxCell>
        <mxCell id="mVAhTfFo_Tym0qC6vXfd-62" style="edgeStyle=orthogonalEdgeStyle;rounded=0;orthogonalLoop=1;jettySize=auto;html=1;entryX=0;entryY=1;entryDx=0;entryDy=0;" parent="1" source="mVAhTfFo_Tym0qC6vXfd-44" target="mVAhTfFo_Tym0qC6vXfd-5" edge="1">
          <mxGeometry relative="1" as="geometry">
            <Array as="points">
              <mxPoint x="-303" y="402" />
              <mxPoint x="130" y="402" />
              <mxPoint x="130" y="279" />
            </Array>
          </mxGeometry>
        </mxCell>
        <mxCell id="mVAhTfFo_Tym0qC6vXfd-63" value="1. Select an input type&lt;br&gt;&lt;div&gt;&lt;span style=&quot;background-color: light-dark(#ffffff, var(--ge-dark-color, #121212)); color: light-dark(rgb(0, 0, 0), rgb(255, 255, 255));&quot;&gt;2. Select&lt;/span&gt;&amp;nbsp;an output type&lt;/div&gt;" style="edgeLabel;html=1;align=center;verticalAlign=middle;resizable=0;points=[];" parent="mVAhTfFo_Tym0qC6vXfd-62" vertex="1" connectable="0">
          <mxGeometry x="-0.3261" y="2" relative="1" as="geometry">
            <mxPoint x="-32" y="-18" as="offset" />
          </mxGeometry>
        </mxCell>
        <mxCell id="mVAhTfFo_Tym0qC6vXfd-44" value="User" style="sketch=0;outlineConnect=0;fontColor=#232F3E;gradientColor=none;fillColor=#232F3D;strokeColor=none;dashed=0;verticalLabelPosition=bottom;verticalAlign=top;align=center;html=1;fontSize=12;fontStyle=0;aspect=fixed;pointerEvents=1;shape=mxgraph.aws4.user;" parent="1" vertex="1">
          <mxGeometry x="-342" y="181" width="78" height="78" as="geometry" />
        </mxCell>
        <mxCell id="mVAhTfFo_Tym0qC6vXfd-49" style="edgeStyle=orthogonalEdgeStyle;rounded=0;orthogonalLoop=1;jettySize=auto;html=1;" parent="1" source="mVAhTfFo_Tym0qC6vXfd-45" target="mVAhTfFo_Tym0qC6vXfd-5" edge="1">
          <mxGeometry relative="1" as="geometry" />
        </mxCell>
        <mxCell id="mVAhTfFo_Tym0qC6vXfd-54" value="3.2. Blog post&lt;div&gt;text&lt;/div&gt;" style="edgeLabel;html=1;align=center;verticalAlign=middle;resizable=0;points=[];" parent="mVAhTfFo_Tym0qC6vXfd-49" vertex="1" connectable="0">
          <mxGeometry x="-0.2592" y="3" relative="1" as="geometry">
            <mxPoint x="-12" y="3" as="offset" />
          </mxGeometry>
        </mxCell>
        <mxCell id="mVAhTfFo_Tym0qC6vXfd-45" value="Blog Post" style="shape=image;html=1;verticalAlign=top;verticalLabelPosition=bottom;labelBackgroundColor=#ffffff;imageAspect=0;aspect=fixed;image=https://cdn1.iconfinder.com/data/icons/ui-essential-17/32/UI_Essential_Outline_1_essential-app-ui-news-feed-128.png" parent="1" vertex="1">
          <mxGeometry x="-101" y="192.5" width="67" height="67" as="geometry" />
        </mxCell>
        <mxCell id="mVAhTfFo_Tym0qC6vXfd-50" style="edgeStyle=orthogonalEdgeStyle;rounded=0;orthogonalLoop=1;jettySize=auto;html=1;entryX=0.006;entryY=0.692;entryDx=0;entryDy=0;entryPerimeter=0;" parent="1" source="mVAhTfFo_Tym0qC6vXfd-48" target="mVAhTfFo_Tym0qC6vXfd-5" edge="1">
          <mxGeometry relative="1" as="geometry">
            <Array as="points">
              <mxPoint x="65" y="336" />
              <mxPoint x="65" y="246" />
            </Array>
          </mxGeometry>
        </mxCell>
        <mxCell id="mVAhTfFo_Tym0qC6vXfd-55" value="3.3. Code script&amp;nbsp;" style="edgeLabel;html=1;align=center;verticalAlign=middle;resizable=0;points=[];" parent="mVAhTfFo_Tym0qC6vXfd-50" vertex="1" connectable="0">
          <mxGeometry x="-0.1636" y="2" relative="1" as="geometry">
            <mxPoint x="-8" y="-3" as="offset" />
          </mxGeometry>
        </mxCell>
        <mxCell id="mVAhTfFo_Tym0qC6vXfd-48" value="File" style="sketch=0;outlineConnect=0;fontColor=#232F3E;gradientColor=none;fillColor=#232F3D;strokeColor=none;dashed=0;verticalLabelPosition=bottom;verticalAlign=top;align=center;html=1;fontSize=12;fontStyle=0;aspect=fixed;pointerEvents=1;shape=mxgraph.aws4.source_code;" parent="1" vertex="1">
          <mxGeometry x="-93.08" y="300.5" width="51.15" height="70" as="geometry" />
        </mxCell>
        <mxCell id="mVAhTfFo_Tym0qC6vXfd-75" value="" style="shape=image;verticalLabelPosition=bottom;labelBackgroundColor=default;verticalAlign=top;aspect=fixed;imageAspect=0;image=https://github.com/gradio-app/gradio/raw/main/readme_files/gradio.svg;" parent="1" vertex="1">
          <mxGeometry x="148" y="159.5" width="347.38" height="121" as="geometry" />
        </mxCell>
      </root>
    </mxGraphModel>
  </diagram>
</mxfile>
